<?xml version="1.0" encoding="UTF-8" standalone="no"?>
<!DOCTYPE svg PUBLIC "-//W3C//DTD SVG 1.1//EN"
 "http://www.w3.org/Graphics/SVG/1.1/DTD/svg11.dtd">
<!-- Generated by graphviz version 2.26.3 (20100126.1600)
 -->
<!-- Title: Registry Working Group Pages: 1 -->
<svg width="432pt" height="243pt"
 viewBox="0.00 0.00 432.00 243.44" xmlns="http://www.w3.org/2000/svg" xmlns:xlink="http://www.w3.org/1999/xlink">
<g id="graph1" class="graph" transform="scale(0.0544711 0.0544711) rotate(0) translate(4 4465.13)">
<title>Registry Working Group</title>
<polygon fill="white" stroke="white" points="-4,5 -4,-4465.13 7927.81,-4465.13 7927.81,5 -4,5"/>
<text text-anchor="middle" x="3961.4" y="-76" font-family="Helvetica,sans-Serif" font-style="oblique" font-size="48.00">Facility Service Descriptor URLs</text>
<text text-anchor="middle" x="3961.4" y="-18.4" font-family="Helvetica,sans-Serif" font-style="oblique" font-size="48.00">EarthCube CDF Registry Working Group, 7/12/2017</text>
<!-- 051ad7dfb9ff4d0eadf87c9ba35d6708 -->
<g id="node1" class="node"><title>051ad7dfb9ff4d0eadf87c9ba35d6708</title>
<polygon fill="white" stroke="black" points="1770.53,-882.875 104.786,-882.875 104.786,-817.275 1770.53,-817.275 1770.53,-882.875"/>
<text text-anchor="middle" x="937.657" y="-835.675" font-family="Helvetica-Outline" font-size="48.00">http://api.rvdata.us/gis?service=WFS&amp;version=1.0.0&amp;request=GetCapabilities</text>
</g>
<!-- 079c67d58f9d4969b6b0d57fb19c16e5 -->
<g id="node2" class="node"><title>079c67d58f9d4969b6b0d57fb19c16e5</title>
<polygon fill="white" stroke="black" points="7921.96,-4084.8 6641.65,-4084.8 6641.65,-4019.2 7921.96,-4019.2 7921.96,-4084.8"/>
<text text-anchor="middle" x="7281.81" y="-4037.6" font-family="Helvetica-Outline" font-size="48.00">http://geows.ds.iris.edu/geows&#45;uf/intermagnet/1/v2/swagger</text>
</g>
<!-- 0a154bef8685c4808058d64559e9e095 -->
<g id="node3" class="node"><title>0a154bef8685c4808058d64559e9e095</title>
<polygon fill="white" stroke="black" points="3445.52,-2139.27 2723.86,-2139.27 2723.86,-2073.67 3445.52,-2073.67 3445.52,-2139.27"/>
<text text-anchor="middle" x="3084.69" y="-2092.07" font-family="Helvetica-Outline" font-size="48.00">Rolling Deck to Repository (R2R)</text>
</g>
<!-- 0a154bef8685c4808058d64559e9e095&#45;&gt;051ad7dfb9ff4d0eadf87c9ba35d6708 -->
<g id="edge2" class="edge"><title>0a154bef8685c4808058d64559e9e095&#45;&gt;051ad7dfb9ff4d0eadf87c9ba35d6708</title>
<path fill="none" stroke="black" d="M3028.37,-2073.51C2728.64,-1898.12 1322.61,-1075.34 1002.59,-888.072"/>
<polygon fill="black" stroke="black" points="1004.28,-885.009 993.886,-882.979 1000.75,-891.051 1004.28,-885.009"/>
</g>
<!-- 43d4fab2ba54bb65e402f4fb3f89e759 -->
<g id="node6" class="node"><title>43d4fab2ba54bb65e402f4fb3f89e759</title>
<polygon fill="white" stroke="black" points="2499.24,-2316.8 1915.04,-2316.8 1915.04,-2251.2 2499.24,-2251.2 2499.24,-2316.8"/>
<text text-anchor="middle" x="2207.14" y="-2269.6" font-family="Helvetica-Outline" font-size="48.00">http://data.rvdata.us/sparql</text>
</g>
<!-- 0a154bef8685c4808058d64559e9e095&#45;&gt;43d4fab2ba54bb65e402f4fb3f89e759 -->
<g id="edge4" class="edge"><title>0a154bef8685c4808058d64559e9e095&#45;&gt;43d4fab2ba54bb65e402f4fb3f89e759</title>
<path fill="none" stroke="black" d="M2922.45,-2139.29C2768.32,-2170.48 2537.33,-2217.21 2379.83,-2249.07"/>
<polygon fill="black" stroke="black" points="2378.67,-2245.73 2369.56,-2251.15 2380.06,-2252.59 2378.67,-2245.73"/>
</g>
<!-- 4964e868380cea89b8a02d79f06bfc9c -->
<g id="node8" class="node"><title>4964e868380cea89b8a02d79f06bfc9c</title>
<polygon fill="white" stroke="black" points="2648.74,-799.085 1846.9,-799.085 1846.9,-733.485 2648.74,-733.485 2648.74,-799.085"/>
<text text-anchor="middle" x="2247.82" y="-751.885" font-family="Helvetica-Outline" font-size="48.00">http://vps.geolink.org/r2rdump/void.ttl</text>
</g>
<!-- 0a154bef8685c4808058d64559e9e095&#45;&gt;4964e868380cea89b8a02d79f06bfc9c -->
<g id="edge6" class="edge"><title>0a154bef8685c4808058d64559e9e095&#45;&gt;4964e868380cea89b8a02d79f06bfc9c</title>
<path fill="none" stroke="black" d="M3064,-2073.34C2950.1,-1890.94 2399.97,-1009.94 2273.69,-807.718"/>
<polygon fill="black" stroke="black" points="2276.61,-805.782 2268.35,-799.154 2270.67,-809.489 2276.61,-805.782"/>
</g>
<!-- b20c36fea833aa94088ceffa5396429f -->
<g id="node10" class="node"><title>b20c36fea833aa94088ceffa5396429f</title>
<polygon fill="white" stroke="black" points="1765.23,-2555.63 0.7712,-2555.63 0.7712,-2490.03 1765.23,-2490.03 1765.23,-2555.63"/>
<text text-anchor="middle" x="883" y="-2508.43" font-family="Helvetica-Outline" font-size="48.00">http://api.rvdata.us/catalog?service=CSW&amp;version=3.0.0&amp;request=GetCapabilities</text>
</g>
<!-- 0a154bef8685c4808058d64559e9e095&#45;&gt;b20c36fea833aa94088ceffa5396429f -->
<g id="edge8" class="edge"><title>0a154bef8685c4808058d64559e9e095&#45;&gt;b20c36fea833aa94088ceffa5396429f</title>
<path fill="none" stroke="black" d="M2911.01,-2139.32C2502.7,-2216.53 1484.85,-2409.02 1066.74,-2488.09"/>
<polygon fill="black" stroke="black" points="1065.85,-2484.69 1056.67,-2489.99 1067.15,-2491.57 1065.85,-2484.69"/>
</g>
<!-- 174d3aa41cb6b0f02a34219f540295fa -->
<g id="node11" class="node"><title>174d3aa41cb6b0f02a34219f540295fa</title>
<a xlink:href="http://lod.bco-dmo.org/sparql" xlink:title="http://lod.bco&#45;dmo.org/sparql">
<polygon fill="white" stroke="black" points="3747.65,-418 3121.84,-418 3121.84,-352.4 3747.65,-352.4 3747.65,-418"/>
<text text-anchor="middle" x="3434.74" y="-370.8" font-family="Helvetica-Outline" font-size="48.00">http://lod.bco&#45;dmo.org/sparql</text>
</a>
</g>
<!-- 1f960c7372d4c78b4f1aa7504784278f -->
<g id="node12" class="node"><title>1f960c7372d4c78b4f1aa7504784278f</title>
<polygon fill="white" stroke="black" points="4383.45,-4449.58 3207.25,-4449.58 3207.25,-4383.98 4383.45,-4383.98 4383.45,-4449.58"/>
<text text-anchor="middle" x="3795.35" y="-4402.38" font-family="Helvetica-Outline" font-size="48.00">http://www.unavco.org/gsacws/gsacapi/repository/view</text>
</g>
<!-- 2679214a493e313ca7ed7a2067e22c29 -->
<g id="node13" class="node"><title>2679214a493e313ca7ed7a2067e22c29</title>
<polygon fill="white" stroke="black" points="5802.37,-3081.49 3732.1,-3081.49 3732.1,-3015.89 5802.37,-3015.89 5802.37,-3081.49"/>
<text text-anchor="middle" x="4767.24" y="-3034.29" font-family="Helvetica-Outline" font-size="48.00">http://opentopo.sdsc.edu/geoportal/csw?Request=GetCapabilities&amp;Service=CSW&amp;Version=2.0.2</text>
</g>
<!-- 2c745f60d5ccbd213b534fe1d8a78cb0 -->
<g id="node14" class="node"><title>2c745f60d5ccbd213b534fe1d8a78cb0</title>
<polygon fill="white" stroke="black" points="7496.81,-886.044 6763.23,-886.044 6763.23,-820.444 7496.81,-820.444 7496.81,-886.044"/>
<text text-anchor="middle" x="7130.02" y="-838.844" font-family="Helvetica-Outline" font-size="48.00">http://opencoredata.org/rdf/void.ttl</text>
</g>
<!-- db98a946097152d7469801730e93e264 -->
<g id="node15" class="node"><title>db98a946097152d7469801730e93e264</title>
<polygon fill="white" stroke="black" points="4333.91,-2478.89 3788.23,-2478.89 3788.23,-2413.29 4333.91,-2413.29 4333.91,-2478.89"/>
<text text-anchor="middle" x="4061.07" y="-2431.69" font-family="Helvetica-Outline" font-size="48.00">EarthCube CDF Registry</text>
</g>
<!-- db98a946097152d7469801730e93e264&#45;&gt;0a154bef8685c4808058d64559e9e095 -->
<g id="edge10" class="edge"><title>db98a946097152d7469801730e93e264&#45;&gt;0a154bef8685c4808058d64559e9e095</title>
<path fill="none" stroke="black" d="M3966.56,-2413.22C3783.02,-2349.38 3379.62,-2209.06 3188.73,-2142.66"/>
<polygon fill="black" stroke="black" points="3189.84,-2139.34 3179.25,-2139.36 3187.54,-2145.95 3189.84,-2139.34"/>
</g>
<!-- 2d78d9c04b7d1aea116ccdc6ad6ea52f -->
<g id="node17" class="node"><title>2d78d9c04b7d1aea116ccdc6ad6ea52f</title>
<polygon fill="white" stroke="black" points="3931.9,-1372.58 3683.95,-1372.58 3683.95,-1306.98 3931.9,-1306.98 3931.9,-1372.58"/>
<text text-anchor="middle" x="3807.93" y="-1325.38" font-family="Helvetica-Outline" font-size="48.00">BCO&#45;DMO</text>
</g>
<!-- db98a946097152d7469801730e93e264&#45;&gt;2d78d9c04b7d1aea116ccdc6ad6ea52f -->
<g id="edge32" class="edge"><title>db98a946097152d7469801730e93e264&#45;&gt;2d78d9c04b7d1aea116ccdc6ad6ea52f</title>
<path fill="none" stroke="black" d="M4053.56,-2413.29C4017.14,-2254.1 3858.91,-1562.59 3817.74,-1382.69"/>
<polygon fill="black" stroke="black" points="3821.12,-1381.76 3815.48,-1372.8 3814.3,-1383.33 3821.12,-1381.76"/>
</g>
<!-- 90dfbebf68f524a6a8dbeff352ecf448 -->
<g id="node29" class="node"><title>90dfbebf68f524a6a8dbeff352ecf448</title>
<polygon fill="white" stroke="black" points="6291.42,-3208.31 5107.18,-3208.31 5107.18,-3142.71 6291.42,-3142.71 6291.42,-3208.31"/>
<text text-anchor="middle" x="5699.3" y="-3161.11" font-family="Helvetica-Outline" font-size="48.00">Incorporated Research Institutions for Seismology IRIS</text>
</g>
<!-- db98a946097152d7469801730e93e264&#45;&gt;90dfbebf68f524a6a8dbeff352ecf448 -->
<g id="edge34" class="edge"><title>db98a946097152d7469801730e93e264&#45;&gt;90dfbebf68f524a6a8dbeff352ecf448</title>
<path fill="none" stroke="black" d="M4134.91,-2478.97C4404.14,-2598.85 5332.12,-3012.02 5616.08,-3138.46"/>
<polygon fill="black" stroke="black" points="5614.94,-3141.78 5625.5,-3142.65 5617.79,-3135.39 5614.94,-3141.78"/>
</g>
<!-- afb401eea3bb7cdf62016ada23155b91 -->
<g id="node37" class="node"><title>afb401eea3bb7cdf62016ada23155b91</title>
<polygon fill="white" stroke="black" points="3858.28,-2862.34 3469.8,-2862.34 3469.8,-2796.74 3858.28,-2796.74 3858.28,-2862.34"/>
<text text-anchor="middle" x="3664.04" y="-2815.14" font-family="Helvetica-Outline" font-size="48.00">OpenTopography</text>
</g>
<!-- db98a946097152d7469801730e93e264&#45;&gt;afb401eea3bb7cdf62016ada23155b91 -->
<g id="edge36" class="edge"><title>db98a946097152d7469801730e93e264&#45;&gt;afb401eea3bb7cdf62016ada23155b91</title>
<path fill="none" stroke="black" d="M4026.88,-2479.12C3954.08,-2549.42 3784.02,-2713.67 3705.33,-2789.66"/>
<polygon fill="black" stroke="black" points="3702.77,-2787.27 3698.01,-2796.73 3707.63,-2792.3 3702.77,-2787.27"/>
</g>
<!-- e15f387803566b0d82a3c174396a1e95 -->
<g id="node46" class="node"><title>e15f387803566b0d82a3c174396a1e95</title>
<polygon fill="white" stroke="black" points="5671.32,-1587.19 5306.9,-1587.19 5306.9,-1521.59 5671.32,-1521.59 5671.32,-1587.19"/>
<text text-anchor="middle" x="5489.11" y="-1539.99" font-family="Helvetica-Outline" font-size="48.00">Open Core Data</text>
</g>
<!-- db98a946097152d7469801730e93e264&#45;&gt;e15f387803566b0d82a3c174396a1e95 -->
<g id="edge38" class="edge"><title>db98a946097152d7469801730e93e264&#45;&gt;e15f387803566b0d82a3c174396a1e95</title>
<path fill="none" stroke="black" d="M4114.02,-2413.03C4336.02,-2274.41 5191.31,-1740.35 5428.06,-1592.51"/>
<polygon fill="black" stroke="black" points="5429.92,-1595.48 5436.55,-1587.21 5426.22,-1589.54 5429.92,-1595.48"/>
</g>
<!-- f22160b95912de8f1268a939b8f771f2 -->
<g id="node48" class="node"><title>f22160b95912de8f1268a939b8f771f2</title>
<polygon fill="white" stroke="black" points="3301.19,-3373.75 3080.88,-3373.75 3080.88,-3308.15 3301.19,-3308.15 3301.19,-3373.75"/>
<text text-anchor="middle" x="3191.04" y="-3326.55" font-family="Helvetica-Outline" font-size="48.00">UNAVCO</text>
</g>
<!-- db98a946097152d7469801730e93e264&#45;&gt;f22160b95912de8f1268a939b8f771f2 -->
<g id="edge40" class="edge"><title>db98a946097152d7469801730e93e264&#45;&gt;f22160b95912de8f1268a939b8f771f2</title>
<path fill="none" stroke="black" d="M4029.07,-2479C3894.91,-2616.99 3377.88,-3148.78 3230.47,-3300.39"/>
<polygon fill="black" stroke="black" points="3227.79,-3298.13 3223.32,-3307.74 3232.8,-3303.01 3227.79,-3298.13"/>
</g>
<!-- mvh -->
<g id="node56" class="node"><title>mvh</title>
<polygon fill="white" stroke="black" points="4504.68,-1948.69 3662.88,-1948.69 3662.88,-1883.09 4504.68,-1883.09 4504.68,-1948.69"/>
<text text-anchor="middle" x="4083.78" y="-1901.49" font-family="Helvetica-Outline" font-size="48.00">Marthas Vineyard Coastal Observatory</text>
</g>
<!-- db98a946097152d7469801730e93e264&#45;&gt;mvh -->
<g id="edge60" class="edge"><title>db98a946097152d7469801730e93e264&#45;&gt;mvh</title>
<path fill="none" stroke="black" d="M4062.49,-2412.93C4066.44,-2320.76 4077.54,-2061.59 4081.95,-1958.74"/>
<polygon fill="black" stroke="black" points="4085.44,-1958.85 4082.38,-1948.71 4078.45,-1958.55 4085.44,-1958.85"/>
</g>
<!-- 2d78d9c04b7d1aea116ccdc6ad6ea52f&#45;&gt;174d3aa41cb6b0f02a34219f540295fa -->
<g id="edge12" class="edge"><title>2d78d9c04b7d1aea116ccdc6ad6ea52f&#45;&gt;174d3aa41cb6b0f02a34219f540295fa</title>
<path fill="none" stroke="black" d="M3795.08,-1306.92C3738.9,-1163.22 3514.82,-590.03 3451.49,-428.04"/>
<polygon fill="black" stroke="black" points="3454.63,-426.452 3447.73,-418.413 3448.11,-429.001 3454.63,-426.452"/>
</g>
<!-- 58c56b5c5627269ebd07d963022b9ff2 -->
<g id="node20" class="node"><title>58c56b5c5627269ebd07d963022b9ff2</title>
<polygon fill="white" stroke="black" points="5000.98,-514.207 4112.89,-514.207 4112.89,-448.607 5000.98,-448.607 5000.98,-514.207"/>
<text text-anchor="middle" x="4556.94" y="-467.007" font-family="Helvetica-Outline" font-size="48.00">http://www.bco&#45;dmo.org/.well&#45;known/void</text>
</g>
<!-- 2d78d9c04b7d1aea116ccdc6ad6ea52f&#45;&gt;58c56b5c5627269ebd07d963022b9ff2 -->
<g id="edge14" class="edge"><title>2d78d9c04b7d1aea116ccdc6ad6ea52f&#45;&gt;58c56b5c5627269ebd07d963022b9ff2</title>
<path fill="none" stroke="black" d="M3836.6,-1306.92C3953.38,-1173.08 4393.05,-669.217 4521.5,-522.021"/>
<polygon fill="black" stroke="black" points="4524.15,-524.303 4528.09,-514.467 4518.88,-519.7 4524.15,-524.303"/>
</g>
<!-- 81f1ce7de790a0e9ac3a31a08bd10648 -->
<g id="node22" class="node"><title>81f1ce7de790a0e9ac3a31a08bd10648</title>
<polygon fill="white" stroke="black" points="3451.37,-1246.4 2662.95,-1246.4 2662.95,-1180.8 3451.37,-1180.8 3451.37,-1246.4"/>
<text text-anchor="middle" x="3057.16" y="-1199.2" font-family="Helvetica-Outline" font-size="48.00">http://www.bco&#45;dmo.org/services/oai</text>
</g>
<!-- 2d78d9c04b7d1aea116ccdc6ad6ea52f&#45;&gt;81f1ce7de790a0e9ac3a31a08bd10648 -->
<g id="edge16" class="edge"><title>2d78d9c04b7d1aea116ccdc6ad6ea52f&#45;&gt;81f1ce7de790a0e9ac3a31a08bd10648</title>
<path fill="none" stroke="black" d="M3683.53,-1318.87C3569.09,-1299.64 3397.2,-1270.75 3262.43,-1248.1"/>
<polygon fill="black" stroke="black" points="3262.82,-1244.62 3252.38,-1246.41 3261.66,-1251.52 3262.82,-1244.62"/>
</g>
<!-- 4ef981a70e408e15db379f73d75a98c3 -->
<g id="node23" class="node"><title>4ef981a70e408e15db379f73d75a98c3</title>
<polygon fill="white" stroke="black" points="4558.43,-3517.18 3764.45,-3517.18 3764.45,-3451.58 4558.43,-3451.58 4558.43,-3517.18"/>
<text text-anchor="middle" x="4161.44" y="-3469.98" font-family="Helvetica-Outline" font-size="48.00">http://opentopo.sdsc.edu/d2rq/snorql</text>
</g>
<!-- 59672538539782e7ebe4253f0c76cbee -->
<g id="node24" class="node"><title>59672538539782e7ebe4253f0c76cbee</title>
<polygon fill="white" stroke="black" points="2570.7,-3434.69 1789.18,-3434.69 1789.18,-3369.09 2570.7,-3369.09 2570.7,-3434.69"/>
<text text-anchor="middle" x="2179.94" y="-3387.49" font-family="Helvetica-Outline" font-size="48.00">http://web&#45;services.unavco.org/spec</text>
</g>
<!-- 604657daef9c3aff7515b77e7dee8045 -->
<g id="node25" class="node"><title>604657daef9c3aff7515b77e7dee8045</title>
<polygon fill="white" stroke="black" points="7855.78,-2524.56 6501.78,-2524.56 6501.78,-2458.96 7855.78,-2458.96 7855.78,-2524.56"/>
<text text-anchor="middle" x="7178.78" y="-2477.36" font-family="Helvetica-Outline" font-size="48.00">http://geows.ds.iris.edu/geows&#45;uf/utepgravitymag/1/v2/swagger</text>
</g>
<!-- 63cc12859ee94febfb007b6e228407bf -->
<g id="node26" class="node"><title>63cc12859ee94febfb007b6e228407bf</title>
<polygon fill="white" stroke="black" points="5968.99,-4442.68 4763.34,-4442.68 4763.34,-4377.08 5968.99,-4377.08 5968.99,-4442.68"/>
<text text-anchor="middle" x="5366.16" y="-4395.48" font-family="Helvetica-Outline" font-size="48.00">http://geows.ds.iris.edu/geows&#45;uf/wovodat/1/v2/swagger</text>
</g>
<!-- 7cc3b212259d28e5603799d1e7a52fb4 -->
<g id="node27" class="node"><title>7cc3b212259d28e5603799d1e7a52fb4</title>
<polygon fill="white" stroke="black" points="6427.39,-2188.39 5635.1,-2188.39 5635.1,-2122.79 6427.39,-2122.79 6427.39,-2188.39"/>
<text text-anchor="middle" x="6031.25" y="-2141.19" font-family="Helvetica-Outline" font-size="48.00">http://opencoredata.org/apidocs.json</text>
</g>
<!-- 846a70cdf933a1e6e6b47185f57064d9 -->
<g id="node28" class="node"><title>846a70cdf933a1e6e6b47185f57064d9</title>
<polygon fill="white" stroke="black" points="1915.35,-4205.12 69.6982,-4205.12 69.6982,-4139.52 1915.35,-4139.52 1915.35,-4205.12"/>
<text text-anchor="middle" x="992.525" y="-4157.92" font-family="Helvetica-Outline" font-size="48.00">http://www.unavco.org/data/web&#45;services/documentation&#45;old/external&#45;prod&#45;server.json</text>
</g>
<!-- 90dfbebf68f524a6a8dbeff352ecf448&#45;&gt;079c67d58f9d4969b6b0d57fb19c16e5 -->
<g id="edge18" class="edge"><title>90dfbebf68f524a6a8dbeff352ecf448&#45;&gt;079c67d58f9d4969b6b0d57fb19c16e5</title>
<path fill="none" stroke="black" d="M5758.92,-3208.53C6006.18,-3345.48 6950.22,-3868.35 7213.35,-4014.09"/>
<polygon fill="black" stroke="black" points="7211.98,-4017.33 7222.43,-4019.11 7215.37,-4011.21 7211.98,-4017.33"/>
</g>
<!-- 90dfbebf68f524a6a8dbeff352ecf448&#45;&gt;604657daef9c3aff7515b77e7dee8045 -->
<g id="edge20" class="edge"><title>90dfbebf68f524a6a8dbeff352ecf448&#45;&gt;604657daef9c3aff7515b77e7dee8045</title>
<path fill="none" stroke="black" d="M5770.66,-3142.53C6017.97,-3028.24 6837.44,-2649.51 7098.29,-2528.96"/>
<polygon fill="black" stroke="black" points="7100.1,-2531.98 7107.71,-2524.61 7097.16,-2525.63 7100.1,-2531.98"/>
</g>
<!-- 90dfbebf68f524a6a8dbeff352ecf448&#45;&gt;63cc12859ee94febfb007b6e228407bf -->
<g id="edge22" class="edge"><title>90dfbebf68f524a6a8dbeff352ecf448&#45;&gt;63cc12859ee94febfb007b6e228407bf</title>
<path fill="none" stroke="black" d="M5690.39,-3208.53C5643.96,-3380.57 5429.88,-4173.8 5377.67,-4367.25"/>
<polygon fill="black" stroke="black" points="5374.25,-4366.49 5375.02,-4377.05 5381.01,-4368.31 5374.25,-4366.49"/>
</g>
<!-- db78ba66d0cfd5586aca0d7a2b6d571c -->
<g id="node34" class="node"><title>db78ba66d0cfd5586aca0d7a2b6d571c</title>
<polygon fill="white" stroke="black" points="5241.15,-4276.81 4072.9,-4276.81 4072.9,-4211.21 5241.15,-4211.21 5241.15,-4276.81"/>
<text text-anchor="middle" x="4657.02" y="-4229.61" font-family="Helvetica-Outline" font-size="48.00">http://service.iris.edu/fdsnws/station/1/application.wadl</text>
</g>
<!-- 90dfbebf68f524a6a8dbeff352ecf448&#45;&gt;db78ba66d0cfd5586aca0d7a2b6d571c -->
<g id="edge24" class="edge"><title>90dfbebf68f524a6a8dbeff352ecf448&#45;&gt;db78ba66d0cfd5586aca0d7a2b6d571c</title>
<path fill="none" stroke="black" d="M5667.25,-3208.37C5514.84,-3364.61 4863.86,-4031.97 4696.42,-4203.63"/>
<polygon fill="black" stroke="black" points="4693.75,-4201.35 4689.27,-4210.95 4698.76,-4206.24 4693.75,-4201.35"/>
</g>
<!-- f10e37099613cf49d596fee7278c6a64 -->
<g id="node36" class="node"><title>f10e37099613cf49d596fee7278c6a64</title>
<polygon fill="white" stroke="black" points="6834.34,-4258.62 5588.73,-4258.62 5588.73,-4193.02 6834.34,-4193.02 6834.34,-4258.62"/>
<text text-anchor="middle" x="6211.53" y="-4211.42" font-family="Helvetica-Outline" font-size="48.00">http://service.iris.edu/fdsnws/dataselect/1/application.wadl</text>
</g>
<!-- 90dfbebf68f524a6a8dbeff352ecf448&#45;&gt;f10e37099613cf49d596fee7278c6a64 -->
<g id="edge26" class="edge"><title>90dfbebf68f524a6a8dbeff352ecf448&#45;&gt;f10e37099613cf49d596fee7278c6a64</title>
<path fill="none" stroke="black" d="M5715.33,-3208.39C5790.42,-3362.35 6107.18,-4011.84 6191.07,-4183.86"/>
<polygon fill="black" stroke="black" points="6187.93,-4185.41 6195.46,-4192.87 6194.22,-4182.35 6187.93,-4185.41"/>
</g>
<!-- afb401eea3bb7cdf62016ada23155b91&#45;&gt;2679214a493e313ca7ed7a2067e22c29 -->
<g id="edge28" class="edge"><title>afb401eea3bb7cdf62016ada23155b91&#45;&gt;2679214a493e313ca7ed7a2067e22c29</title>
<path fill="none" stroke="black" d="M3829.2,-2862.35C4034.22,-2903.08 4382.38,-2972.24 4591.98,-3013.87"/>
<polygon fill="black" stroke="black" points="4591.36,-3017.32 4601.85,-3015.84 4592.72,-3010.45 4591.36,-3017.32"/>
</g>
<!-- afb401eea3bb7cdf62016ada23155b91&#45;&gt;4ef981a70e408e15db379f73d75a98c3 -->
<g id="edge30" class="edge"><title>afb401eea3bb7cdf62016ada23155b91&#45;&gt;4ef981a70e408e15db379f73d75a98c3</title>
<path fill="none" stroke="black" d="M3689.05,-2862.47C3772.06,-2971.75 4038.41,-3322.41 4130.09,-3443.11"/>
<polygon fill="black" stroke="black" points="4127.55,-3445.55 4136.38,-3451.4 4133.12,-3441.32 4127.55,-3445.55"/>
</g>
<!-- b33bd92106a80f42064abc8735351f44 -->
<g id="node40" class="node"><title>b33bd92106a80f42064abc8735351f44</title>
<polygon fill="white" stroke="black" points="3161.85,-4459.93 2148.3,-4459.93 2148.3,-4394.33 3161.85,-4394.33 3161.85,-4459.93"/>
<text text-anchor="middle" x="2655.07" y="-4412.73" font-family="Helvetica-Outline" font-size="48.00">http://web&#45;services.unavco.org/brokered/ssara/</text>
</g>
<!-- b386ce1fe93982be2fdf5e1110a5ef8a -->
<g id="node41" class="node"><title>b386ce1fe93982be2fdf5e1110a5ef8a</title>
<polygon fill="white" stroke="black" points="6059.78,-585.113 5403.54,-585.113 5403.54,-519.513 6059.78,-519.513 6059.78,-585.113"/>
<text text-anchor="middle" x="5731.66" y="-537.913" font-family="Helvetica-Outline" font-size="48.00">http://opencoredata.org/sparql</text>
</g>
<!-- e15f387803566b0d82a3c174396a1e95&#45;&gt;2c745f60d5ccbd213b534fe1d8a78cb0 -->
<g id="edge42" class="edge"><title>e15f387803566b0d82a3c174396a1e95&#45;&gt;2c745f60d5ccbd213b534fe1d8a78cb0</title>
<path fill="none" stroke="black" d="M5566.06,-1521.51C5838.59,-1405.06 6756.94,-1012.66 7043.71,-890.12"/>
<polygon fill="black" stroke="black" points="7045.42,-893.198 7053.24,-886.05 7042.67,-886.761 7045.42,-893.198"/>
</g>
<!-- e15f387803566b0d82a3c174396a1e95&#45;&gt;7cc3b212259d28e5603799d1e7a52fb4 -->
<g id="edge44" class="edge"><title>e15f387803566b0d82a3c174396a1e95&#45;&gt;7cc3b212259d28e5603799d1e7a52fb4</title>
<path fill="none" stroke="black" d="M5519.03,-1587.57C5611.6,-1690.22 5893.14,-2002.44 5994.44,-2114.78"/>
<polygon fill="black" stroke="black" points="5992.12,-2117.43 6001.42,-2122.51 5997.32,-2112.74 5992.12,-2117.43"/>
</g>
<!-- e15f387803566b0d82a3c174396a1e95&#45;&gt;b386ce1fe93982be2fdf5e1110a5ef8a -->
<g id="edge46" class="edge"><title>e15f387803566b0d82a3c174396a1e95&#45;&gt;b386ce1fe93982be2fdf5e1110a5ef8a</title>
<path fill="none" stroke="black" d="M5497.12,-1521.34C5533.18,-1372.32 5680.66,-763.024 5721.27,-595.254"/>
<polygon fill="black" stroke="black" points="5724.73,-595.848 5723.68,-585.305 5717.92,-594.201 5724.73,-595.848"/>
</g>
<!-- f22160b95912de8f1268a939b8f771f2&#45;&gt;1f960c7372d4c78b4f1aa7504784278f -->
<g id="edge48" class="edge"><title>f22160b95912de8f1268a939b8f771f2&#45;&gt;1f960c7372d4c78b4f1aa7504784278f</title>
<path fill="none" stroke="black" d="M3209.62,-3374.03C3297.77,-3530.96 3673.6,-4200.04 3771.8,-4374.86"/>
<polygon fill="black" stroke="black" points="3768.85,-4376.75 3776.8,-4383.76 3774.96,-4373.33 3768.85,-4376.75"/>
</g>
<!-- f22160b95912de8f1268a939b8f771f2&#45;&gt;59672538539782e7ebe4253f0c76cbee -->
<g id="edge50" class="edge"><title>f22160b95912de8f1268a939b8f771f2&#45;&gt;59672538539782e7ebe4253f0c76cbee</title>
<path fill="none" stroke="black" d="M3080.91,-3347.59C2960.85,-3354.82 2761.7,-3366.83 2581.12,-3377.71"/>
<polygon fill="black" stroke="black" points="2580.67,-3374.23 2570.9,-3378.33 2581.09,-3381.22 2580.67,-3374.23"/>
</g>
<!-- f22160b95912de8f1268a939b8f771f2&#45;&gt;846a70cdf933a1e6e6b47185f57064d9 -->
<g id="edge52" class="edge"><title>f22160b95912de8f1268a939b8f771f2&#45;&gt;846a70cdf933a1e6e6b47185f57064d9</title>
<path fill="none" stroke="black" d="M3104.17,-3373.8C2755.02,-3505.83 1455.11,-3997.39 1089.03,-4135.83"/>
<polygon fill="black" stroke="black" points="1087.63,-4132.62 1079.51,-4139.43 1090.1,-4139.17 1087.63,-4132.62"/>
</g>
<!-- f22160b95912de8f1268a939b8f771f2&#45;&gt;b33bd92106a80f42064abc8735351f44 -->
<g id="edge54" class="edge"><title>f22160b95912de8f1268a939b8f771f2&#45;&gt;b33bd92106a80f42064abc8735351f44</title>
<path fill="none" stroke="black" d="M3174.85,-3373.75C3097.18,-3531.16 2762.86,-4208.68 2675.84,-4385.04"/>
<polygon fill="black" stroke="black" points="2672.58,-4383.74 2671.29,-4394.26 2678.86,-4386.84 2672.58,-4383.74"/>
</g>
<!-- mvhs1 -->
<g id="node57" class="node"><title>mvhs1</title>
<polygon fill="white" stroke="black" points="5074.44,-1429.19 4266.26,-1429.19 4266.26,-1363.59 5074.44,-1363.59 5074.44,-1429.19"/>
<text text-anchor="middle" x="4670.35" y="-1381.99" font-family="Helvetica-Outline" font-size="48.00">http://mvcodata.whoi.edu/jg/dir/mvco/</text>
</g>
<!-- mvh&#45;&gt;mvhs1 -->
<g id="edge56" class="edge"><title>mvh&#45;&gt;mvhs1</title>
<path fill="none" stroke="black" d="M4120.92,-1883C4223.96,-1791.74 4513.22,-1535.55 4625.24,-1436.34"/>
<polygon fill="black" stroke="black" points="4627.83,-1438.72 4633,-1429.47 4623.19,-1433.48 4627.83,-1438.72"/>
</g>
<!-- mvhs2 -->
<g id="node58" class="node"><title>mvhs2</title>
<polygon fill="white" stroke="black" points="5941,-2325.41 3926.69,-2325.41 3926.69,-2259.81 5941,-2259.81 5941,-2325.41"/>
<text text-anchor="middle" x="4933.85" y="-2278.21" font-family="Helvetica-Outline" font-size="48.00">http://mvcodata.whoi.edu:8080/q2o/adcp?service=SOS&amp;version=1.0&amp;request=GetCapabilities</text>
</g>
<!-- mvh&#45;&gt;mvhs2 -->
<g id="edge58" class="edge"><title>mvh&#45;&gt;mvhs2</title>
<path fill="none" stroke="black" d="M4158.1,-1948.83C4316.12,-2018.86 4684.55,-2182.13 4850.36,-2255.61"/>
<polygon fill="black" stroke="black" points="4848.98,-2258.83 4859.54,-2259.68 4851.82,-2252.43 4848.98,-2258.83"/>
</g>
</g>
</svg>
